<svg xmlns="http://www.w3.org/2000/svg" xmlns:xlink="http://www.w3.org/1999/xlink" version="1.1" x="0px" y="0px"
     viewBox="0 0 50 62.5" style="enable-background:new 0 0 50 50;" xml:space="preserve"><g><polygon points="45.6,29.9 45.2,18.9 46.4,18.9 46.4,14.7 45.1,14.7 45,12.7 44.3,12.7 44.3,14.7 43,14.7 43,18.9 44.1,18.9    43.8,29.9 41.7,29.9 41.7,32.1 43.4,32.1 43.4,33.3 35.1,33.3 35.1,43 43.4,39.9 43.4,41.3 45.9,41.3 45.9,32.1 47.7,32.1    47.7,29.9  "/><polygon
        points="6.6,32.1 8.3,32.1 8.3,29.9 6.2,29.9 5.9,18.9 7,18.9 7,14.7 5.7,14.7 5.7,12.7 5,12.7 4.9,14.7 3.6,14.7    3.6,18.9 4.8,18.9 4.4,29.9 2.3,29.9 2.3,32.1 4.1,32.1 4.1,41.3 6.6,41.3 6.6,39.8 14.9,43 14.9,33.3 6.6,33.3  "/><path
        d="M16.3,33.3c0,5.7,0,10.3,0,15.7h2.2c0-6.6-0.2-2.6,0.9-17.7h-3.2V33.3z"/><path
        d="M31.4,49h2.2c0-5.3,0-9.8,0-15.7v-2.1h-3.2C31.7,48,31.4,49.1,31.4,49z"/><polygon
        points="27.2,6.5 26.8,1 23.2,1 22.7,6.7 25.1,4.4  "/><path
        d="M27.5,9.5l-2.4-2.4l-2.6,2.6c-0.1,1.1-2.5,34-2.5,33.9h9.9C27.3,7.1,27.5,10.3,27.5,9.5z M24.1,19.4h1.9l0.8,7.6L25,29.2   c0.7,0,1.2,0.6,1.2,1.2c0,0.7-0.6,1.2-1.2,1.2c-0.6,0-1.2-0.5-1.2-1.2c0-0.6,0.5-1.2,1.2-1.2l-1.8-2.2L24.1,19.4z M25,39.9   c-1.4,0-2.5-1.1-2.5-2.5c0-1.4,1.1-2.5,2.5-2.5c1.4,0,2.5,1.1,2.5,2.5C27.5,38.8,26.4,39.9,25,39.9z"/></g>
</svg>